<svg width="368" height="368" viewBox="0 0 368 368" fill="none" xmlns="http://www.w3.org/2000/svg">
<circle cx="184" cy="184" r="184" fill="#4387AC"/>
<path d="M99.3381 218.316C99.1858 221.782 94.9773 223.896 86.7127 224.658C86.408 225.267 86.408 226.162 86.7127 227.343C93.9109 227.114 99.0144 227 102.023 227C106.784 227 112.211 227.114 118.305 227.343C118.61 226.162 118.61 225.267 118.305 224.658C109.964 223.896 105.756 221.782 105.679 218.316C105.299 206.472 105.108 196.15 105.108 187.353C105.108 175.317 105.261 164.672 105.565 155.417H106.136L134.015 225.572H134.587L160.637 156.789H161.152C161.532 168.252 161.723 178.44 161.723 187.353C161.723 199.73 161.532 210.299 161.152 219.059C161.075 220.049 160.618 220.906 159.781 221.63C158.981 222.315 157.781 222.868 156.181 223.287C154.582 223.667 153.23 223.934 152.125 224.086C151.021 224.239 149.612 224.391 147.898 224.543C147.593 225.153 147.593 226.048 147.898 227.229C154.372 227 160.999 226.886 167.779 226.886C175.891 226.886 183.698 227 191.201 227.229C191.506 226.543 191.506 225.648 191.201 224.543C178.557 223.782 172.197 221.992 172.12 219.173C171.663 207.214 171.435 195.198 171.435 183.125C171.435 171.433 171.587 160.788 171.892 151.19C171.968 148.372 178.328 146.582 190.973 145.82C191.278 144.715 191.278 143.82 190.973 143.135C183.47 143.363 173.491 143.478 161.037 143.478L136.7 207.005L113.278 143.478C103.985 143.478 95.7581 143.325 88.5979 143.021C88.217 143.782 88.217 144.506 88.5979 145.191C93.1301 145.839 96.0818 146.791 97.4529 148.048C98.8621 149.267 99.6047 152.104 99.6809 156.56C99.9475 165.929 100.081 174.784 100.081 183.125C100.081 194.665 99.8333 206.396 99.3381 218.316ZM96.9959 218.316C97.491 206.319 97.7385 194.589 97.7385 183.125C97.7385 174.784 97.6052 165.929 97.3386 156.56C97.2625 153.056 96.5769 150.809 95.282 149.819C94.0252 148.791 91.283 147.991 87.0554 147.419C85.989 145.096 86.0271 142.811 87.1697 140.564C95.9295 140.945 107.317 141.135 121.333 141.135L140.071 191.18L159.381 141.135C169.588 141.135 180.861 140.983 193.201 140.678C193.963 143.154 194.039 145.61 193.429 148.048C185.012 148.886 180.766 150.009 180.69 151.418C180.347 158.579 180.176 169.147 180.176 183.125C180.176 197.56 180.423 209.5 180.918 218.945C180.994 220.354 185.241 221.478 193.658 222.315C194.267 224.753 194.191 227.209 193.429 229.685C181.09 229.38 173.91 229.228 171.892 229.228C168.845 229.228 160.314 229.38 146.298 229.685C145.346 227.019 145.346 224.562 146.298 222.315C154.563 221.478 158.733 220.392 158.809 219.059C159.19 210.147 159.381 199.578 159.381 187.353C159.381 177.831 159.343 170.842 159.266 166.386L136.186 227.914H132.359L107.45 165.129V187.353C107.45 196.15 107.641 206.472 108.022 218.316C108.098 220.373 112.268 221.744 120.533 222.43C121.485 224.715 121.485 227.171 120.533 229.799C109.145 229.342 97.3196 229.342 85.0559 229.799C84.1419 227.171 84.1419 224.715 85.0559 222.43C92.9397 221.668 96.9197 220.297 96.9959 218.316ZM233.927 146.962C237.05 146.81 239.278 146.734 240.611 146.734C254.512 146.734 261.463 153.761 261.463 167.814C261.463 173.87 260.111 178.65 257.407 182.154C254.703 185.62 250.666 187.353 245.296 187.353C241.259 187.353 237.355 186.648 233.584 185.239C233.584 173.47 233.698 160.711 233.927 146.962ZM220.387 219.059C220.844 209.538 221.073 197.56 221.073 183.125C221.073 170.861 220.883 160.254 220.502 151.304C220.426 149.895 216.179 148.771 207.762 147.934C207.114 145.42 207.191 142.963 207.99 140.564C212.028 140.716 216.369 140.812 221.016 140.85C225.662 140.888 230.994 140.869 237.012 140.792C243.068 140.716 247.505 140.678 250.323 140.678C260.873 140.678 268.909 143.154 274.431 148.105C279.954 153.056 282.715 159.664 282.715 167.929C282.715 176.27 279.649 182.801 273.517 187.524C267.424 192.247 259.502 194.608 249.752 194.608C247.01 194.608 244.553 194.36 242.382 193.865C242.382 204.644 242.496 213.08 242.725 219.173C242.725 219.402 242.991 219.707 243.525 220.087C244.096 220.468 244.915 220.83 245.981 221.173C247.086 221.516 248.857 221.858 251.294 222.201C253.77 222.506 255.198 222.696 255.579 222.772C256.226 224.905 256.112 227.248 255.236 229.799C241.182 229.495 232.651 229.342 229.642 229.342C227.433 229.342 220.178 229.495 207.876 229.799C206.924 227.171 206.924 224.715 207.876 222.43C216.141 221.592 220.311 220.468 220.387 219.059ZM259.121 167.814C259.121 156.008 253.617 149.8 242.611 149.19C242.458 157.607 242.382 169.147 242.382 183.811C243.791 184.458 245.315 184.858 246.952 185.01C250.913 184.629 253.922 182.916 255.979 179.869C258.073 176.822 259.121 172.804 259.121 167.814ZM222.73 219.173C222.654 221.992 218.236 223.82 209.476 224.658C209.171 225.267 209.171 226.162 209.476 227.343C215.95 227.114 222.673 227 229.642 227C237.755 227 245.543 227.114 253.008 227.343C253.313 226.733 253.313 225.838 253.008 224.658C240.364 223.896 234.003 222.068 233.927 219.173C233.698 208.395 233.584 198.359 233.584 189.066C238.345 191.199 243.734 192.266 249.752 192.266C257.483 192.266 263.444 190 267.633 185.467C271.861 180.935 273.974 175.089 273.974 167.929C273.974 160.426 271.594 154.408 266.833 149.876C262.072 145.306 255.198 143.021 246.21 143.021C243.429 143.021 239.526 143.078 234.498 143.192C229.471 143.306 224.958 143.363 220.959 143.363C216.998 143.363 213.208 143.249 209.59 143.021C209.285 143.706 209.285 144.601 209.59 145.706C211.304 145.858 212.713 146.01 213.818 146.163C214.922 146.315 216.274 146.582 217.874 146.962C219.473 147.343 220.673 147.896 221.473 148.619C222.311 149.305 222.768 150.162 222.844 151.19C223.225 160.14 223.415 170.785 223.415 183.125C223.415 195.198 223.187 207.214 222.73 219.173Z" fill="white"/>
</svg>
